# xmcd CD database file
#
# Track frame offsets:
#	150
#	25937
#	77163
#	96638
#	111236
#	184013
#	222574
#	248271
#
# Disc length: 4602 seconds
#
# Revision: 1
# Processed by: cddbd v1.5.1PL2 Copyright (c) Steve Scherf et al.
# Submitted via: CDex 1.51
#
DISCID=6911f808
DTITLE=Stockholm Jazz Orchestra - Waves from the Vanguard
DYEAR=2005
DGENRE=Jazz
TTITLE0=Low down
TTITLE1=Central Park north
TTITLE2=All my yesterdays
TTITLE3=It only happens every time
TTITLE4=Off the cuff
TTITLE5=Kids are pretty people
TTITLE6=Consummation
TTITLE7=Fingers
EXTD=YEAR: 2005
EXTT0=
EXTT1=
EXTT2=
EXTT3=
EXTT4=
EXTT5=
EXTT6=
EXTT7=
PLAYORDER=
